<?xml version="1.0" encoding="UTF-8"?>
<svg width="115px" height="115px" viewBox="0 0 115 115" version="1.1" xmlns="http://www.w3.org/2000/svg" xmlns:xlink="http://www.w3.org/1999/xlink">
    <title>close</title>
    <g id="Phase-2" stroke="none" stroke-width="1" fill="none" fill-rule="evenodd">
        <path d="M3.40633124,3.40633124 C7.11631201,-0.303649532 13.1313793,-0.303649532 16.8413601,3.40633124 L16.8413601,3.40633124 L57.4998457,44.0648457 L98.1586399,3.40633124 C101.868621,-0.303649532 107.883688,-0.303649532 111.593669,3.40633124 C115.30365,7.11631201 115.30365,13.1313793 111.593669,16.8413601 L70.9348457,57.4998457 L111.593669,98.1586399 C115.23365,101.798621 115.302329,107.657525 111.799705,111.381239 L111.593669,111.593669 C107.883688,115.30365 101.868621,115.30365 98.1586399,111.593669 L98.1586399,111.593669 L57.4998457,70.9348457 L16.8413601,111.593669 C13.1313793,115.30365 7.11631201,115.30365 3.40633124,111.593669 C-0.303649532,107.883688 -0.303649532,101.868621 3.40633124,98.1586399 L44.0648457,57.4998457 L3.40633124,16.8413601 C-0.233649895,13.2013789 -0.302328785,7.34247508 3.20029457,3.61876101 Z" id="close" fill="#646464"></path>
    </g>
</svg>